<svg xmlns="http://www.w3.org/2000/svg" viewBox="0 0 100 100">
  <!-- Database Cylinder -->

  <!-- Cylinder body (solid white) -->
  <path d="M18 32 L18 72 C18 82 82 82 82 72 L82 32" fill="#ffffff" stroke="#1a1a1a" stroke-width="2"/>

  <!-- Bottom ellipse -->
  <ellipse cx="50" cy="72" rx="32" ry="10" fill="#ffffff" stroke="#1a1a1a" stroke-width="2"/>

  <!-- Middle band line -->
  <path d="M18 52 C18 58 82 58 82 52" fill="none" stroke="#1a1a1a" stroke-width="2"/>

  <!-- Top rim (white edge) -->
  <ellipse cx="50" cy="32" rx="32" ry="10" fill="#ffffff" stroke="#1a1a1a" stroke-width="2"/>

  <!-- Top surface (dark) -->
  <ellipse cx="50" cy="32" rx="27" ry="8" fill="#1a1a1a"/>

  <!-- Polkadot Logo on top (black and white) -->
  <!-- Center dot -->
  <ellipse cx="50" cy="32" rx="5" ry="2.5" fill="#ffffff"/>

  <!-- Surrounding dots (6 dots in a ring) -->
  <ellipse cx="50" cy="24" rx="4" ry="1.8" fill="#ffffff"/>
  <ellipse cx="58" cy="27" rx="3.5" ry="1.6" fill="#ffffff"/>
  <ellipse cx="58" cy="37" rx="3.5" ry="1.6" fill="#ffffff"/>
  <ellipse cx="50" cy="40" rx="4" ry="1.8" fill="#ffffff"/>
  <ellipse cx="42" cy="37" rx="3.5" ry="1.6" fill="#ffffff"/>
  <ellipse cx="42" cy="27" rx="3.5" ry="1.6" fill="#ffffff"/>
</svg>
