<svg xmlns="http://www.w3.org/2000/svg" fill="none" viewBox="0 0 1528 1144" height="1144" width="1528">
<g clip-path="url(#clip0_2994_498)">
<rect fill="url(#paint0_linear_2994_498)" height="1144" width="1528"></rect>
<ellipse fill="#ED1166" transform="matrix(-0.531015 0.847363 0.847363 0.531015 865.462 833.571)" ry="237.975" rx="278.142" cy="237.975" cx="278.142"></ellipse>
<ellipse fill="#A80950" transform="matrix(0.235996 0.971754 0.971754 -0.235996 1236.89 197.35)" ry="50.1618" rx="259.718" cy="50.1618" cx="259.718"></ellipse>
<ellipse fill="#FF2670" transform="matrix(0.454338 0.890829 0.890829 -0.454338 911.051 -6.61279)" ry="71.5936" rx="277.827" cy="71.5936" cx="277.827"></ellipse>
<ellipse fill="#C80858" transform="matrix(-0.147813 0.989015 0.989015 0.147813 1131.85 510.218)" ry="191.517" rx="276.919" cy="191.517" cx="276.919"></ellipse>
<ellipse fill="#FF2670" transform="matrix(0.620445 0.78425 0.78425 -0.620445 314.544 -17.0537)" ry="149.058" rx="279.358" cy="149.058" cx="279.358"></ellipse>
<ellipse fill="#FF2670" transform="matrix(0.812318 0.583215 0.583215 -0.812318 -396.92 189.335)" ry="212.299" rx="278.039" cy="212.299" cx="278.039"></ellipse>
<mask height="551" width="389" y="537" x="1086" maskUnits="userSpaceOnUse" style="mask-type:alpha" id="mask0_2994_498">
<ellipse fill="#C80858" transform="matrix(-0.147813 0.989015 0.989015 0.147813 1131.85 510.219)" ry="191.517" rx="276.919" cy="191.517" cx="276.919"></ellipse>
</mask>
<g mask="url(#mask0_2994_498)">
<ellipse fill="#A80950" transform="matrix(-0.531015 0.847363 0.847363 0.531015 1010.39 736.215)" ry="207.029" rx="278.142" cy="207.029" cx="278.142"></ellipse>
</g>
<path fill="white" d="M610.18 627.392L616.447 598.188C619.888 598.586 624.375 598.961 630.613 598.961C645.192 598.961 657.094 595.014 665.363 588.019C673.643 581.015 678.225 571.001 678.225 559.001C678.227 550.861 676.034 544.016 671.906 538.688C667.779 533.361 661.754 529.598 654.174 527.553C649.764 526.361 644.825 525.75 639.421 525.75C633.694 525.75 622.485 527.274 615.728 528.403L615.293 528.476L594.019 627.392H610.18ZM629.914 584.23H629.911C627.714 584.23 625.761 584.196 623.965 584.112C622.379 584.038 620.916 583.925 619.516 583.762L628.635 541.392C631.546 540.982 635.636 540.482 639.842 540.482C642.437 540.482 644.803 540.692 646.941 541.095C651.061 541.873 654.337 543.369 656.787 545.468C660.492 548.643 662.395 553.273 662.395 559.14C662.395 566.663 659.669 572.903 654.3 577.276C648.914 581.663 640.795 584.23 629.914 584.23Z" clip-rule="evenodd" fill-rule="evenodd"></path>
<path fill="white" d="M752.471 627.396L773.948 527.535H757.777L736.304 627.396H752.471Z"></path>
<path fill="white" d="M956.579 563.589L964.401 527.529H980.584L966.402 592.995C965.14 598.73 964.039 605.243 964.039 609.082C964.039 610.656 964.249 611.857 964.664 612.643C964.866 613.027 965.109 613.295 965.388 613.471C965.664 613.645 966.013 613.75 966.466 613.75C967.054 613.75 967.783 613.481 968.643 612.911C969.495 612.347 970.414 611.527 971.367 610.523C973.231 608.558 975.162 605.952 976.878 603.357C976.867 603.032 976.863 602.702 976.863 602.368C976.863 591.658 980.722 580.671 987.42 572.353C994.123 564.029 1003.69 558.348 1015.11 558.348C1023.03 558.348 1029.36 561.101 1033.7 565.815C1038.05 570.522 1040.36 577.127 1040.36 584.743C1040.36 602.93 1029.36 621.904 1012.15 627.36C1009 628.361 1005.61 628.906 1002.11 628.906C998.614 628.906 995.425 628.368 992.575 627.353C987.651 625.609 983.77 622.455 981.098 618.271C977.79 622.42 974.098 625.581 969.975 627.338C967.593 628.359 965.034 628.906 962.414 628.906C959.797 628.906 957.463 628.373 955.484 627.314C951.292 625.071 948.856 620.565 948.526 614.233C944.839 620.236 939.861 625.018 933.489 627.351C930.751 628.352 927.771 628.899 924.537 628.899C921.508 628.899 918.73 628.354 916.242 627.343C911.028 625.23 907.133 621.116 904.851 615.876C901.379 621.565 897.597 625.37 893.338 627.331C891.053 628.385 888.596 628.899 886.103 628.899C883.603 628.899 881.396 628.35 879.529 627.309C875.531 625.079 873.237 620.711 872.807 615.114C869.367 620.619 864.764 625.106 858.754 627.35C856.076 628.348 853.129 628.899 849.901 628.899C846.886 628.899 844.09 628.36 841.564 627.344C838.424 626.084 835.964 624.015 834.076 621.432C830.718 624.744 826.79 627.16 822.581 628.454C817.894 629.896 812.745 629.947 807.939 627.975C803.068 625.976 799.193 622.156 796.727 617.03C795.466 614.406 794.194 611.286 792.97 608.282C792.626 607.437 792.286 606.601 791.95 605.789C791.207 603.987 790.46 602.225 789.691 600.529C787.948 600.886 786.274 601.129 784.692 601.273L779.06 627.46H762.375L783.958 527.09H800.646L788.675 582.751C797.097 580.321 808.707 573.443 816.686 556.463L832.486 563.937C825.113 579.63 814.909 589.252 804.915 594.815C805.636 596.44 806.308 598.038 806.937 599.562C807.354 600.573 807.747 601.537 808.122 602.459C809.304 605.357 810.312 607.828 811.336 609.957C812.243 611.843 813.291 612.588 814.081 612.912C814.937 613.263 816.187 613.398 817.827 612.894C821.134 611.877 825.499 608.281 827.66 601.386L829.243 594.437C829.86 589.865 831.025 585.701 832.504 582.634C839.57 567.975 853.688 558.067 869.321 558.067C874.409 558.067 879.722 559.286 884.368 561.132C889.008 562.975 893.037 565.466 895.532 568.05L895.776 568.304L895.698 568.648C895.204 570.822 894.582 573.472 893.9 576.382L893.9 576.384L893.899 576.385C892.795 581.097 891.531 586.489 890.387 591.645C889.463 595.812 888.621 599.81 888.01 603.15C887.396 606.508 887.026 609.147 887.026 610.623C887.026 611.736 887.257 612.531 887.606 613.03C887.935 613.499 888.398 613.75 889.03 613.75C889.924 613.75 890.979 613.261 892.2 612.129C893.412 611.006 894.717 609.316 896.102 607.076C898.868 602.602 901.884 596.05 905.084 587.772C910.982 570.014 926.13 558.348 941.308 558.348C948.275 558.348 953.127 560.418 956.579 563.589ZM875.124 587.25L875.124 587.246L878.084 574.838C875.327 573.206 872.198 572.099 868.202 572.099C861.26 572.099 855.144 575.946 850.74 581.676C846.336 587.406 843.695 594.963 843.695 602.229C843.695 605.91 844.581 608.899 846.194 610.953C847.79 612.987 850.147 614.167 853.248 614.167C857.901 614.167 862.345 611.81 866.151 607.247C869.963 602.679 873.109 595.927 875.124 587.25ZM952.972 579.849L952.972 579.846L953.73 576.193C950.927 574.021 947.113 572.384 942.146 572.384C935.488 572.384 929.616 576.121 925.385 581.761C921.154 587.402 918.612 594.89 918.612 602.232C918.612 606.058 919.501 609.047 921.062 611.066C922.608 613.062 924.858 614.171 927.748 614.171C933.047 614.171 938.224 610.786 942.672 604.73C947.111 598.686 950.75 590.069 952.972 579.849ZM995.529 610.555C997.245 612.772 999.909 614.167 1003.79 614.167C1009.36 614.167 1014.46 610.508 1018.21 605.041C1021.95 599.585 1024.25 592.439 1024.25 585.721C1024.25 582.098 1023.42 578.935 1021.69 576.693C1019.98 574.476 1017.31 573.08 1013.43 573.08C1007.86 573.08 1002.76 576.771 999.012 582.258C995.276 587.733 992.976 594.88 992.976 601.53C992.976 605.151 993.799 608.313 995.529 610.555Z" clip-rule="evenodd" fill-rule="evenodd"></path>
<path fill="white" d="M1095.28 608.588L1094.91 609.135C1091.94 613.479 1087.91 618.327 1085.16 620.759C1082.92 622.754 1080.34 624.607 1077.5 626.038C1074.07 627.777 1070.24 628.898 1066.14 628.898C1062.66 628.898 1059.66 628.279 1057.12 627.128C1050.24 624.009 1047.05 617.084 1047.05 608.66C1047.05 605.325 1047.43 602.076 1047.85 599.526V599.505L1047.86 599.451C1048.02 598.557 1048.17 597.749 1048.32 597.053V597.051L1053.32 573.778H1042.26L1045.27 559.746H1056.26L1062.12 532.788H1078.29L1072.4 559.746H1092L1088.98 573.778H1069.33L1064.27 597.6C1064.26 597.651 1064.25 597.701 1064.24 597.751L1064.23 597.769L1064.23 597.776C1064.22 597.831 1064.21 597.886 1064.2 597.941L1064.2 597.944L1064.19 597.991C1063.53 601.341 1063.02 604.356 1063.02 606.841C1063.02 609.144 1063.49 610.917 1064.33 612.096C1065.15 613.246 1066.34 613.888 1067.96 613.888C1069.81 613.888 1071.5 613.223 1073.39 611.875C1075.29 610.516 1077.34 608.497 1079.93 605.838C1080.14 605.61 1081.4 604.066 1082.77 602.395L1083.88 601.049L1095.28 608.588Z"></path>
<path fill="white" d="M711.675 558.355C700.261 558.355 690.687 564.036 683.984 572.36C677.286 580.678 673.427 591.665 673.427 602.375C673.427 614.356 679.059 623.788 689.149 627.36C691.998 628.371 695.183 628.906 698.675 628.906C702.167 628.906 705.548 628.365 708.696 627.367C725.91 621.921 736.925 602.94 736.925 584.746C736.925 577.132 734.612 570.528 730.269 565.821C725.92 561.108 719.588 558.355 711.675 558.355ZM700.353 614.174C696.474 614.174 693.809 612.778 692.096 610.562C690.363 608.319 689.542 605.157 689.542 601.537C689.542 594.887 691.84 587.74 695.578 582.264C699.324 576.778 704.427 573.087 709.999 573.087C713.878 573.087 716.543 574.482 718.257 576.699C719.99 578.942 720.811 582.105 720.811 585.727C720.811 592.446 718.512 599.592 714.775 605.048C711.031 610.515 705.927 614.174 700.353 614.174Z" clip-rule="evenodd" fill-rule="evenodd"></path>
<path fill="white" d="M560.069 536.301C567.12 548.711 567.195 562.047 560.235 566.087C553.276 570.127 541.919 563.342 534.868 550.931C527.817 538.521 527.742 525.185 534.702 521.145C541.661 517.105 553.018 523.89 560.069 536.301Z"></path>
<path fill="white" d="M438.133 536.301C431.082 548.711 431.007 562.047 437.967 566.087C444.926 570.127 456.283 563.342 463.334 550.931C470.385 538.521 470.46 525.185 463.501 521.145C456.541 517.105 445.184 523.89 438.133 536.301Z"></path>
<path fill="white" d="M560.243 607.42C553.259 619.87 541.939 626.719 534.958 622.717C527.977 618.716 527.979 605.38 534.962 592.93C541.946 580.481 553.266 573.632 560.247 577.633C567.228 581.635 567.226 594.971 560.243 607.42Z"></path>
<path fill="white" d="M437.961 607.42C444.944 619.87 456.264 626.719 463.245 622.717C470.226 618.716 470.225 605.38 463.241 592.93C456.258 580.481 444.938 573.632 437.957 577.633C430.976 581.635 430.978 594.971 437.961 607.42Z"></path>
<path fill="white" d="M498.91 643.246C484.754 643.049 473.367 636.314 473.477 628.202C473.587 620.091 485.153 613.675 499.31 613.871C513.466 614.068 524.853 620.803 524.743 628.915C524.633 637.026 513.067 643.442 498.91 643.246Z"></path>
<path fill="white" d="M498.91 530.129C484.754 529.932 473.367 523.197 473.477 515.085C473.587 506.974 485.153 500.558 499.31 500.754C513.466 500.951 524.853 507.686 524.743 515.798C524.633 523.909 513.067 530.325 498.91 530.129Z"></path>
</g>
<defs>
<linearGradient gradientUnits="userSpaceOnUse" y2="640.393" x2="-187.947" y1="0" x1="1528" id="paint0_linear_2994_498">
<stop stop-color="#FF2670"></stop>
<stop stop-color="#7916F3" offset="1"></stop>
</linearGradient>
<clipPath id="clip0_2994_498">
<rect fill="white" height="1144" width="1528"></rect>
</clipPath>
</defs>
</svg>
